CATALOG 0000000000000
FILE "Town With No Name (1992)(On-line)(M6)(Track 1 of 3)[!][CDTV-TOWNS].iso" BINARY
  TRACK 01 MODE1/2048
    INDEX 01 00:00:00
FILE "Town With No Name (1992)(On-line)(M6)(Track 2 of 3)[!][CDTV-TOWNS].wav" WAVE
  TRACK 02 AUDIO
    PREGAP 00:00:00
    INDEX 01 00:00:00
FILE "Town With No Name (1992)(On-line)(M6)(Track 3 of 3)[!][CDTV-TOWNS].wav" WAVE
  TRACK 03 AUDIO
    INDEX 00 00:00:00
    INDEX 01 00:06:60
